<svg width="20" height="20" viewBox="0 0 20 20" fill="none" xmlns="http://www.w3.org/2000/svg">
<path d="M10.03 14.0434C12.2465 14.0434 14.0433 12.2465 14.0433 10.0301C14.0433 7.81355 12.2465 6.01672 10.03 6.01672C7.81349 6.01672 6.01666 7.81355 6.01666 10.0301C6.01666 12.2465 7.81349 14.0434 10.03 14.0434Z" stroke="#858585" stroke-linecap="round" stroke-linejoin="round"/>
<path d="M1 14.0433V6.01667C1 3.24604 3.24604 1 6.01667 1H14.0433C16.8139 1 19.06 3.24604 19.06 6.01667V14.0433C19.06 16.8139 16.8139 19.06 14.0433 19.06H6.01667C3.24604 19.06 1 16.8139 1 14.0433Z" stroke="#858585"/>
<path d="M15.5483 4.52177L15.5584 4.51062" stroke="#858585" stroke-linecap="round" stroke-linejoin="round"/>
</svg>
