<svg width="20" height="20" viewBox="0 0 20 20" fill="none" xmlns="http://www.w3.org/2000/svg">
<path d="M14.4913 18.5434H2.03288C1.69921 18.5434 1.42871 18.2729 1.42871 17.9392V8.07108C1.42871 7.73741 1.69921 7.46691 2.03288 7.46691H4.81975C5.52716 7.46691 6.1827 7.09574 6.54665 6.48915L9.2759 1.94035C9.86487 0.958847 11.2519 0.865542 11.967 1.75935C12.304 2.18065 12.4127 2.74062 12.2576 3.2574L11.2281 6.68913C11.1118 7.07677 11.4021 7.46691 11.8068 7.46691H16.4137C17.7416 7.46691 18.706 8.72963 18.3566 10.0107L16.4342 17.0593C16.1953 17.9356 15.3995 18.5434 14.4913 18.5434Z" stroke="#858585" stroke-width="2" stroke-linecap="round"/>
<path d="M4.95312 18.5434V7.46692" stroke="#858585" stroke-width="2" stroke-linecap="round" stroke-linejoin="round"/>
</svg>
