<svg width="151" height="548" viewBox="0 0 151 548" fill="none" xmlns="http://www.w3.org/2000/svg">
<ellipse cx="189.5" cy="218" rx="144.5" ry="177" fill="#F2DFF0"/>
<circle cx="162" cy="172" r="85" fill="#D6F4F3"/>
<circle cx="64" cy="276" r="27" fill="#F5C0C0"/>
<path d="M202.885 1.37659C183.026 1.37659 162.859 12.5875 144.078 18.2787C121.759 25.042 96.9066 38.5331 82.9344 57.5354C77.0228 65.5751 72.0077 74.3124 66.5774 82.6939C58.1375 95.7207 45.5931 104.461 35.7329 116.187C19.1019 135.964 11.7711 159.356 6.60204 184.34C3.2762 200.415 0.0166101 215.658 1.85074 232.165C4.47694 255.801 10.2899 279.182 16.1046 302.188C21.8184 324.795 29.7238 340.239 48.0396 355.309C66.1469 370.208 84.9041 382.107 100.849 399.551C118.214 418.548 128.358 442.39 144.779 462.175C156.804 476.663 175.601 484.162 185.282 500.341C194.628 515.96 210.758 543.402 230.926 546.763" stroke="#FFBF42" stroke-width="0.8" stroke-linecap="round"/>
</svg>
