<svg width="103" height="629" viewBox="0 0 103 629" fill="none" xmlns="http://www.w3.org/2000/svg">
<path d="M55.1708 184.207C96.6235 215.873 112.872 270.69 95.3703 319.83L58.1299 424.391C55.2737 432.41 53.2789 440.711 52.1793 449.153L42.4955 523.5C33.2673 594.347 -35.4405 641.487 -104.862 624.6L-146.009 614.591C-156.878 611.947 -168.063 610.836 -179.24 611.29L-245.42 613.976C-304.493 616.374 -356.51 575.389 -367.999 517.395L-390.906 401.768C-392.346 394.497 -394.457 387.376 -397.211 380.495L-441.014 271.062C-462.984 216.174 -441.703 153.462 -390.865 123.282L-333.911 89.4706C-324.292 83.7605 -315.519 76.7337 -307.847 68.5941L-278.8 37.7791C-229.794 -14.2108 -146.496 -12.1269 -100.151 42.2486L-51.5169 99.3093C-45.9947 105.788 -39.7987 111.661 -33.0335 116.829L55.1708 184.207Z" fill="#FFEEEE"/>
</svg>
