<svg width="100" height="470" viewBox="0 0 100 470" fill="none" xmlns="http://www.w3.org/2000/svg">
<path d="M-286.243 53.6717C-244.796 -8.36697 -157.383 -17.9451 -103.485 33.6464L-81.3163 54.8662C-63.4781 71.941 -40.4943 82.6377 -15.9441 85.2906L15.037 88.6384C89.645 96.7005 125.821 184.077 78.7468 242.518C61.8088 263.546 54.6304 290.794 59.0092 317.438L59.714 321.726C71.4268 392.996 9.111 454.415 -61.9814 441.669L-118.24 431.584C-140.958 427.511 -164.369 430.076 -185.666 438.972L-238.406 461.001C-305.052 488.838 -379.189 442.371 -383.187 370.256L-383.428 365.917C-384.922 338.957 -397.831 313.91 -418.92 297.049C-477.533 250.188 -461.136 157.051 -390.044 133.024L-360.523 123.047C-337.13 115.141 -317.008 99.7209 -303.29 79.1885L-286.243 53.6717Z" fill="#F7D8D8"/>
</svg>
